<svg id="Hand" xmlns="http://www.w3.org/2000/svg" viewBox="0 0 1404.55 1728.38"><title>palm-of-hand</title><g id="Accessibility"><path d="M725.94,1864.19c-9-3-18.09-5.51-26.87-9-43.33-17-66.46-56.46-58.24-102.11C673.95,1569,709,1385.25,740.39,1200.86c15.45-90.74,27.25-182.32,35.48-274,6-66.4-7.86-80.79-71.26-100.59-95.92-30-192.23-58.77-287.61-90.37-28.91-9.58-57.76-23.37-82.33-41.16-57.6-41.7-45.28-143.22,19.12-174,19.43-9.29,39.09-8.32,59.11-2.25a2857.64,2857.64,0,0,0,435.62,95.7c116.89,16.25,233.19,11.26,349.39-7.25,131.11-20.89,260-51.32,387.46-88.11,41.46-12,74.38.45,96.49,37.71,27.61,46.52,37.73,113.33-38.84,152.63-34.76,17.84-72.31,30.53-109.24,43.77-80.32,28.79-161.4,55.5-241.51,84.84C1222.05,863.47,1214,874,1220.88,952c14.87,168.73,49.68,334.41,80.7,500.63,18.45,98.84,37.2,197.63,55.2,296.55,9.71,53.35-17.64,95.62-69.9,110.39-4.75,1.34-9.38,3.08-14.06,4.63h-43.88c-52.31-14.09-75.15-52.87-85.27-102.11-5.54-26.95-9.93-54.15-16.1-81-27.93-121.44-55.66-242.92-85-364-6.42-26.46-17.88-52-29.54-76.78-9.82-20.88-19.59-20.07-31.17.36a125.41,125.41,0,0,0-10,21.32c-9.18,27.1-20.12,53.86-26.33,81.66q-45.13,202.16-87.84,404.86c-11.19,53-29.29,99.34-87.88,115.67H725.94Z" transform="translate(-297.72 -135.81)" style="fill:#fff"/><path d="M1023,135.81c11.28,3,22.69,5.67,33.81,9.21,86.34,27.5,143.52,116.7,130.11,202.66-15.21,97.5-91.91,165.77-186.7,166.16-93.15.39-172.52-67.27-187.15-159.53-16.15-101.85,52-197.48,153.31-215.39,3.2-.57,6.24-2.06,9.36-3.12H1023Z" transform="translate(-297.72 -135.81)" style="fill:#fff"/></g></svg>