<svg id="Layer_1" data-name="Layer 1" xmlns="http://www.w3.org/2000/svg" viewBox="0 0 1760 1341.79"><title>WellnessHavenLogo</title><path d="M1883.44,707.81c-5.79,31.86-10.94,63.86-17.47,95.56-33.69,163.52-93.22,315.55-201.07,445.54-91.08,109.78-207.3,184.15-339.13,234.8-48.91,18.79-99.92,32.14-150,47.83-3.71,1.16-7.8,1.14-15.35,2.15,4.69-7.25,7.83-12.14,11-17,82.71-125.85,144.54-260.57,174-409.07a818.26,818.26,0,0,0,11.32-247.67c-1.23-11.53,1.52-17.32,10.89-23.53C1475.31,765,1593.5,719,1719,691.26c46.23-10.21,93.35-16.59,140.27-23.23,7.5-1.06,16.1,5.7,24.19,8.85v30.94Z" transform="translate(-123.44 -332.5)" style="fill:#fff"/><path d="M123.44,676.88c8.66-3.07,17.69-9.58,25.93-8.71,118.35,12.49,233.27,39.83,341.8,89,51.34,23.25,99.73,53.09,149,80.74,5,2.8,10.35,11.41,9.77,16.71-18,167.28,14.26,326.11,84.39,477.13,30.71,66.12,70.35,128.1,105.94,192,1.36,2.43,2.85,4.79,7,11.7-27.38-7.31-50.79-13-73.84-19.82-141.13-42-270.18-106-377.58-208.93C299.2,1214,234.5,1101.22,189.15,976.52c-30.76-84.59-52-171.54-62.57-261-0.31-2.64-2.06-5.12-3.14-7.67Q123.44,692.34,123.44,676.88Z" transform="translate(-123.44 -332.5)" style="fill:#fff"/><path d="M123.44,1340.31l99.81-77c69.83,96.45,153.44,172.51,251.81,232.74,97.3,59.56,202.18,100.61,312,130.14l1,4.92c-35.08,10.66-69.7,23.31-105.32,31.64-143.2,33.48-267.56-7.61-378.34-99-65.45-54-120.06-117.65-166.69-188.35-4.71-7.15-9.54-14.22-14.32-21.33Q123.44,1347.19,123.44,1340.31Z" transform="translate(-123.44 -332.5)" style="fill:#fff"/><path d="M1883.44,1354.06c-44.51,69.1-94.9,133.35-156.27,188.43-68.78,61.73-145.36,109.17-237.9,125.78-74.37,13.35-146.94,3.39-218.09-19.78-17.28-5.63-34.11-12.61-56-20.77,229.56-62.34,426.22-168.18,568.59-364.56l99.62,77.16v13.75Z" transform="translate(-123.44 -332.5)" style="fill:#fff"/><path d="M748.14,944.93c0.45-140.3,40.39-270.25,103.47-394.1A1153.5,1153.5,0,0,1,986,344.05c12.42-15.21,22.59-15.5,34.73-.27,104.72,131.34,182.83,276,220,441,36.61,162.42,15.67,319.2-46.6,471.76-42.42,103.93-99.29,199.45-169.55,287-17.38,21.66-25,21.79-42.2.08C878.62,1412.32,800.48,1268,765.73,1103.11,754.82,1051.35,746.74,945.13,748.14,944.93Z" transform="translate(-123.44 -332.5)" style="fill:#fff"/><path d="M1337.84,729.71c-24-61.9-49.08-126.11-73.57-190.54-1.5-3.95-.19-11.5,2.74-14.22A1108.64,1108.64,0,0,1,1452,386.3c14.61-8.75,24.18-4.92,29.39,13.14,15.33,53.13,30.35,106.37,43.95,160,6.29,24.78,9,50.47,13,73.75Z" transform="translate(-123.44 -332.5)" style="fill:#fff"/><path d="M469,633.27a1145.9,1145.9,0,0,1,55.26-231.34c7.76-21.94,15.71-24.76,35.64-12.69a1152.06,1152.06,0,0,1,177,132.34c5.62,5.09,9.95,8.58,6.24,18.39-23.78,62.91-46.46,126.23-69.52,189.41-0.54,1.47-1.29,2.86-.9,2Z" transform="translate(-123.44 -332.5)" style="fill:#fff"/></svg>